<svg width="20" height="20" viewBox="0 0 20 20" fill="none" xmlns="http://www.w3.org/2000/svg">
<path d="M8.33332 0C5.57582 0 3.33332 2.2425 3.33332 5V6.66668C3.33332 7.69836 3.6475 8.6575 4.185 9.455C1.68832 10.895 0 13.5833 0 16.6667V17.5C0 18.8783 1.12168 20 2.5 20H10C10.4608 20 10.8333 19.6267 10.8333 19.1667C10.8333 18.7067 10.4608 18.3334 10 18.3334H2.5C2.04 18.3334 1.66668 17.9592 1.66668 17.5V16.6667C1.66668 14.0509 3.18168 11.7834 5.38 10.6925C6.20918 11.3017 7.22832 11.6667 8.33332 11.6667C11.0908 11.6667 13.3333 9.42422 13.3333 6.66672V5C13.3333 2.2425 11.0908 0 8.33332 0ZM11.6667 6.66668C11.6667 8.505 10.1717 10 8.33336 10C6.49504 10 5 8.505 5 6.66668V5C5 3.16168 6.495 1.66668 8.33332 1.66668C10.1716 1.66668 11.6666 3.16168 11.6666 5V6.66668H11.6667Z" fill="white"/>
<path d="M19.1667 14.1666H15.8334V10.8333C15.8334 10.3733 15.4609 10 15 10C14.5392 10 14.1667 10.3733 14.1667 10.8333V14.1666H10.8334C10.3725 14.1666 10 14.54 10 15C10 15.46 10.3725 15.8333 10.8333 15.8333H14.1666V19.1666C14.1666 19.6266 14.5391 19.9999 15 19.9999C15.4608 19.9999 15.8333 19.6266 15.8333 19.1666V15.8333H19.1666C19.6274 15.8333 19.9999 15.46 19.9999 15C19.9999 14.54 19.6275 14.1666 19.1667 14.1666Z" fill="white"/>
</svg>
