<svg width="30" height="30" viewBox="0 0 30 30" fill="none" xmlns="http://www.w3.org/2000/svg">
<path d="M15 0C23.2843 0 30 6.71572 30 15C30 23.2842 23.2843 29.9999 15 29.9999C6.71578 29.9999 6.29425e-05 23.2842 6.29425e-05 15C6.29425e-05 6.71572 6.71572 0 15 0ZM9.88832 25.3581C10.2755 25.8055 10.9521 25.8545 11.3996 25.4672C11.4103 25.458 11.4208 25.4485 11.431 25.4389L22.1453 15.7961C22.585 15.4 22.6203 14.7225 22.2243 14.2829C22.1994 14.2552 22.173 14.2289 22.1453 14.2039L11.431 4.56108C10.9992 4.15653 10.3212 4.17863 9.91663 4.61049C9.51208 5.04234 9.53418 5.72036 9.96604 6.12491C9.97633 6.13457 9.98682 6.14399 9.99749 6.15322L19.8215 15L9.99755 23.8467C9.55 24.2339 9.50116 24.9106 9.88832 25.3581Z" fill="#62C567"/>
</svg>
