<svg width="20" height="20" viewBox="0 0 20 20" fill="none" xmlns="http://www.w3.org/2000/svg">
<path d="M17.8571 2.14286H15.7143V0.714299C15.7143 0.319796 15.3945 0 15 0C14.6055 0 14.2857 0.319796 14.2857 0.714299V2.14286H5.71427V0.714299C5.71427 0.319796 5.39447 0 5.00001 0C4.60555 0 4.28571 0.319796 4.28571 0.714299V2.14286H2.14286C0.959388 2.14286 0 3.10224 0 4.28571V17.8571C0 19.0406 0.959388 20 2.14286 20H17.8571C19.0406 20 20 19.0406 20 17.8571V4.28571C20 3.10224 19.0406 2.14286 17.8571 2.14286ZM18.5714 17.8571C18.5714 18.2516 18.2516 18.5714 17.8571 18.5714H2.14286C1.74835 18.5714 1.42856 18.2516 1.42856 17.8571V8.57142H18.5714V17.8571ZM18.5714 7.14287H1.42856V4.28571C1.42856 3.89121 1.74835 3.57141 2.14286 3.57141H4.28571V4.99997C4.28571 5.39447 4.60551 5.71427 5.00001 5.71427C5.39451 5.71427 5.71431 5.39447 5.71431 4.99997V3.57141H14.2857V4.99997C14.2857 5.39447 14.6055 5.71427 15 5.71427C15.3945 5.71427 15.7143 5.39447 15.7143 4.99997V3.57141H17.8572C18.2517 3.57141 18.5715 3.89121 18.5715 4.28571V7.14287H18.5714Z" fill="#353535"/>
<path d="M5.71427 10H4.28571C3.89121 10 3.57141 10.3198 3.57141 10.7143C3.57141 11.1088 3.89121 11.4286 4.28571 11.4286H5.71427C6.10878 11.4286 6.42857 11.1088 6.42857 10.7143C6.42857 10.3198 6.10878 10 5.71427 10Z" fill="#353535"/>
<path d="M10.7143 10H9.28571C8.89121 10 8.57141 10.3198 8.57141 10.7143C8.57141 11.1088 8.89121 11.4286 9.28571 11.4286H10.7143C11.1088 11.4286 11.4286 11.1088 11.4286 10.7143C11.4286 10.3198 11.1088 10 10.7143 10Z" fill="#353535"/>
<path d="M15.7143 10H14.2857C13.8912 10 13.5714 10.3198 13.5714 10.7143C13.5714 11.1088 13.8912 11.4286 14.2857 11.4286H15.7143C16.1088 11.4286 16.4286 11.1088 16.4286 10.7143C16.4285 10.3198 16.1087 10 15.7143 10Z" fill="#353535"/>
<path d="M5.71427 12.8569H4.28571C3.89121 12.8569 3.57141 13.1767 3.57141 13.5712C3.57141 13.9657 3.89121 14.2855 4.28571 14.2855H5.71427C6.10878 14.2855 6.42857 13.9657 6.42857 13.5712C6.42857 13.1767 6.10878 12.8569 5.71427 12.8569Z" fill="#353535"/>
<path d="M10.7143 12.8569H9.28571C8.89121 12.8569 8.57141 13.1767 8.57141 13.5712C8.57141 13.9657 8.89121 14.2855 9.28571 14.2855H10.7143C11.1088 14.2855 11.4286 13.9657 11.4286 13.5712C11.4286 13.1767 11.1088 12.8569 10.7143 12.8569Z" fill="#353535"/>
<path d="M15.7143 12.8569H14.2857C13.8912 12.8569 13.5714 13.1767 13.5714 13.5712C13.5714 13.9657 13.8912 14.2855 14.2857 14.2855H15.7143C16.1088 14.2855 16.4286 13.9657 16.4286 13.5712C16.4285 13.1767 16.1087 12.8569 15.7143 12.8569Z" fill="#353535"/>
<path d="M5.71427 15.7144H4.28571C3.89121 15.7144 3.57141 16.0342 3.57141 16.4287C3.57141 16.8232 3.89121 17.1429 4.28571 17.1429H5.71427C6.10878 17.1429 6.42857 16.8231 6.42857 16.4286C6.42857 16.0341 6.10878 15.7144 5.71427 15.7144Z" fill="#353535"/>
<path d="M10.7143 15.7144H9.28571C8.89121 15.7144 8.57141 16.0342 8.57141 16.4287C8.57141 16.8232 8.89121 17.143 9.28571 17.143H10.7143C11.1088 17.143 11.4286 16.8232 11.4286 16.4287C11.4286 16.0342 11.1088 15.7144 10.7143 15.7144Z" fill="#353535"/>
<path d="M15.7143 15.7144H14.2857C13.8912 15.7144 13.5714 16.0342 13.5714 16.4287C13.5714 16.8232 13.8912 17.143 14.2857 17.143H15.7143C16.1088 17.143 16.4286 16.8232 16.4286 16.4287C16.4286 16.0342 16.1087 15.7144 15.7143 15.7144Z" fill="#353535"/>
</svg>
