<svg width="50" height="50" viewBox="0 0 50 50" fill="none" xmlns="http://www.w3.org/2000/svg">
<g clip-path="url(#clip0)">
<path d="M38.8626 32.2359C37.5194 32.2359 36.4337 33.3216 36.4337 34.6648V42.294C36.4337 43.6348 35.3456 44.7229 34.0049 44.7229H7.28669C5.94589 44.7229 4.85783 43.6347 4.85783 42.294V10.7182C4.85783 9.37743 5.94599 8.28937 7.28669 8.28937H21.3987C22.7418 8.28937 23.8275 7.20364 23.8275 5.8605C23.8275 4.51736 22.7418 3.43164 21.3987 3.43164H7.28669C3.26928 3.43145 0 6.70082 0 10.7182V42.294C0 46.3115 3.26928 49.5807 7.28669 49.5807H34.0047C38.0221 49.5807 41.2914 46.3139 41.2914 42.294V34.6649C41.2915 33.3216 40.2057 32.2359 38.8626 32.2359Z" fill="white"/>
<path d="M47.2837 3.12216C45.5203 1.35881 43.2176 0.469762 40.898 0.421227C38.457 0.36781 36.0013 1.25188 34.1554 3.10028L17.7116 19.544C15.3118 21.9536 13.9905 25.15 13.9905 28.5455V33.9863C13.9905 35.3294 15.0762 36.4151 16.4193 36.4151H21.8601C25.2557 36.4151 28.4522 35.0938 30.864 32.6916L47.2859 16.2697C50.9051 12.6484 50.9051 6.74612 47.2837 3.12216ZM27.4321 29.2549C25.9432 30.739 23.9612 31.5575 21.8603 31.5575H18.8483V28.5456C18.8483 26.4446 19.6668 24.4626 21.1485 22.9761L31.9887 12.1359L38.2699 18.417L27.4321 29.2549ZM43.8492 12.8378L41.7044 14.9826L35.4232 8.70145L37.5679 6.55677C39.3022 4.82252 42.1197 4.8274 43.8491 6.55677C45.5785 8.28847 45.5785 11.106 43.8492 12.8378Z" fill="white"/>
</g>
<defs>
<clipPath id="clip0">
<rect width="50" height="50" fill="white"/>
</clipPath>
</defs>
</svg>
