<svg width="15" height="16" viewBox="0 0 15 16" fill="none" xmlns="http://www.w3.org/2000/svg">
<g clip-path="url(#clip0)">
<path d="M11.6588 10.0275C11.2558 10.0275 10.9301 10.3532 10.9301 10.7562V13.045C10.9301 13.4472 10.6037 13.7736 10.2015 13.7736H2.18601C1.78377 13.7736 1.45735 13.4472 1.45735 13.045V3.57221C1.45735 3.16997 1.7838 2.84355 2.18601 2.84355H6.41959C6.82254 2.84355 7.14825 2.51783 7.14825 2.11489C7.14825 1.71195 6.82254 1.38623 6.41959 1.38623H2.18601C0.980783 1.38617 0 2.36698 0 3.57221V13.045C0 14.2502 0.980783 15.231 2.18601 15.231H10.2014C11.4066 15.231 12.3874 14.2509 12.3874 13.045V10.7562C12.3874 10.3532 12.0617 10.0275 11.6588 10.0275Z" fill="#353535" fill-opacity="0.6"/>
<path d="M14.1851 1.29387C13.6561 0.764869 12.9653 0.498155 12.2694 0.483595C11.5371 0.46757 10.8004 0.73279 10.2466 1.28731L5.31348 6.22044C4.59355 6.9433 4.19714 7.90222 4.19714 8.92089V10.5531C4.19714 10.956 4.52286 11.2818 4.9258 11.2818H6.55802C7.57672 11.2818 8.53565 10.8854 9.25921 10.1647L14.1858 5.23813C15.2715 4.15173 15.2715 2.38106 14.1851 1.29387ZM8.22965 9.1337C7.78296 9.57891 7.18836 9.82448 6.55808 9.82448H5.65449V8.92092C5.65449 8.29061 5.90006 7.69601 6.34454 7.25006L9.59662 3.99799L11.481 5.88233L8.22965 9.1337ZM13.1548 4.20857L12.5113 4.852L10.627 2.96766L11.2704 2.32426C11.7907 1.80398 12.6359 1.80545 13.1547 2.32426C13.6736 2.84377 13.6736 3.68903 13.1548 4.20857Z" fill="#353535" fill-opacity="0.6"/>
</g>
<defs>
<clipPath id="clip0">
<rect width="15" height="15" fill="white" transform="translate(0 0.356934)"/>
</clipPath>
</defs>
</svg>
