<svg width="20" height="20" viewBox="0 0 20 20" fill="none" xmlns="http://www.w3.org/2000/svg">
<path d="M14.3753 0C14.2978 0 6.87524 0 6.87524 0C5.55273 0 4.37525 1.21313 4.37525 2.50001L3.65275 2.51689C2.33087 2.51689 1.25024 3.71312 1.25024 5V17.5C1.25024 18.7869 2.42775 20 3.75026 20H13.1253C14.4477 20 15.6252 18.7869 15.6252 17.5H16.2502C17.5728 17.5 18.7503 16.2869 18.7503 15V5.01501L14.3753 0ZM13.1253 18.75H3.75026C3.09401 18.75 2.50027 18.1369 2.50027 17.5V5C2.50027 4.36314 3.03465 3.77062 3.6909 3.77062L4.37525 3.75001V15C4.37525 16.2869 5.55273 17.5 6.87524 17.5H14.3753C14.3753 18.1369 13.7815 18.75 13.1253 18.75ZM17.5003 15C17.5003 15.6369 16.9065 16.25 16.2502 16.25H6.87524C6.21899 16.25 5.62525 15.6369 5.62525 15V2.50001C5.62525 1.86315 6.21899 1.25002 6.87524 1.25002H13.1253C13.1152 2.6894 13.1253 3.76565 13.1253 3.76565C13.1253 5.0644 14.294 6.25002 15.6252 6.25002C15.6252 6.25002 16.289 6.25002 17.5003 6.25002V15ZM15.6252 5C14.9596 5 14.3753 3.79064 14.3753 3.14188C14.3753 3.14188 14.3753 2.48437 14.3753 1.26938V1.26812L17.5003 5H15.6252ZM14.3753 8.76127H8.75026C8.40526 8.76127 8.12526 9.04064 8.12526 9.38564C8.12526 9.73064 8.40526 10.01 8.75026 10.01H14.3753C14.7203 10.01 15.0003 9.73061 15.0003 9.38564C15.0003 9.04064 14.7203 8.76127 14.3753 8.76127ZM14.3753 11.8831H8.75026C8.40526 11.8831 8.12526 12.1625 8.12526 12.5075C8.12526 12.8525 8.40526 13.1319 8.75026 13.1319H14.3753C14.7203 13.1319 15.0003 12.8525 15.0003 12.5075C15.0003 12.1625 14.7203 11.8831 14.3753 11.8831Z" fill="white"/>
</svg>
