<svg width="126" height="123" viewBox="0 0 126 123" fill="none" xmlns="http://www.w3.org/2000/svg">
<path d="M27.1856 106.882C24.6937 106.862 22.2509 106.186 20.1024 104.924C17.9539 103.661 16.1751 101.856 14.9447 99.6889C13.7142 97.5218 13.0753 95.0693 13.092 92.5773C13.1087 90.0853 13.7805 87.6416 15.0399 85.4912L56.3856 14.7979C57.6319 12.6344 59.4311 10.8412 61.5988 9.60215C63.7665 8.3631 66.2247 7.72277 68.7214 7.74678L68.7708 7.73882C71.2564 7.74556 73.6959 8.41067 75.841 9.66645C77.9861 10.9222 79.7602 12.7239 80.9828 14.888L121.533 86.0458C122.768 88.2125 123.41 90.666 123.396 93.1598C123.383 95.6536 122.713 98.0998 121.454 100.253C120.196 102.406 118.392 104.189 116.226 105.425C114.06 106.66 111.607 107.304 109.113 107.291L27.2172 106.826L27.1856 106.882Z" fill="#AA5D81"/>
<path d="M27.1856 106.882L28.0423 106.856L30.5824 106.842L40.3478 106.849L76.2442 106.973L101.029 107.033L107.83 107.062C108.979 107.108 110.13 107.058 111.27 106.913C112.417 106.752 113.539 106.442 114.606 105.991C116.827 105.05 118.769 103.553 120.244 101.644C121.72 99.7355 122.679 97.4794 123.03 95.0928C123.398 92.612 123.078 90.0779 122.104 87.7669C121.572 86.6027 120.971 85.4718 120.302 84.3802C119.654 83.2489 119.016 82.116 118.366 80.9748C115.762 76.4176 113.111 71.7801 110.413 67.0624C105.008 57.5912 99.4181 47.7853 93.6976 37.7371C90.8623 32.7106 88.0398 27.7631 85.2299 22.8946C83.8229 20.4472 82.4206 18.0294 81.0792 15.6119C80.0234 13.538 78.4648 11.7617 76.5458 10.4451C74.6268 9.12858 72.4085 8.31379 70.0936 8.07518C67.7786 7.83657 65.4408 8.18173 63.2936 9.07915C61.1464 9.97657 59.2582 11.3976 57.8015 13.2126C57.0341 14.2353 56.341 15.3116 55.7273 16.4334C54.4393 18.6666 53.1576 20.8549 51.8822 22.9983L24.9535 68.9343C21.1463 75.483 17.6074 81.3706 14.6295 86.5905C13.3951 89.0922 12.9416 91.9074 13.3276 94.6703C13.6645 96.9907 14.5652 99.1932 15.9509 101.085C17.0483 102.599 18.4356 103.88 20.0321 104.854C21.2098 105.558 22.4825 106.09 23.8113 106.433C24.6313 106.64 25.4668 106.78 26.3095 106.851C26.8716 106.882 27.1706 106.915 27.1706 106.915C27.1706 106.915 26.8843 106.961 26.2977 106.904C24.232 106.795 22.2165 106.227 20.3982 105.241C18.58 104.254 17.0048 102.875 15.7875 101.202C14.3657 99.2933 13.4361 97.0635 13.0808 94.71C12.6697 91.8936 13.1174 89.0187 14.3655 86.4608C17.3157 81.1947 20.8218 75.2921 24.6207 68.755L51.4494 22.7641L55.2929 16.1893C55.9094 15.0445 56.6134 13.9491 57.3988 12.9128C58.2465 11.8574 59.239 10.927 60.3468 10.1489C62.0358 8.95222 63.962 8.13211 65.9952 7.744C68.0285 7.35589 70.1214 7.40883 72.1324 7.89926C74.1434 8.38968 76.0257 9.30615 77.652 10.5867C79.2783 11.8673 80.6107 13.4821 81.5592 15.3219C82.9598 17.7299 84.3621 20.1476 85.7099 22.6046C88.5224 27.4896 91.3492 32.4634 94.1776 37.447C99.9079 47.4937 105.478 57.3028 110.895 66.7822C113.588 71.5142 116.232 76.1527 118.828 80.6978L120.763 84.0934C121.439 85.2044 122.051 86.3539 122.593 87.5361C123.595 89.931 123.923 92.5541 123.542 95.1219C123.173 97.5881 122.178 99.9185 120.651 101.89C119.124 103.861 117.117 105.408 114.821 106.382C113.714 106.839 112.553 107.155 111.367 107.323C110.203 107.471 109.028 107.521 107.856 107.473L101.063 107.433L76.2705 107.262L40.3768 106.966L30.6168 106.866L28.0786 106.83L27.1856 106.882Z" fill="#263238"/>
<path d="M68.749 12.0066C66.992 11.9715 65.2576 12.4072 63.7257 13.2683C62.1938 14.1295 60.9202 15.3848 60.0369 16.9041L18.6913 87.5975C17.8202 89.1054 17.3581 90.8147 17.3506 92.5562C17.3431 94.2976 17.7905 96.0108 18.6485 97.5263C19.5065 99.0417 20.7454 100.307 22.2425 101.196C23.7397 102.086 25.4432 102.569 27.1844 102.598L109.146 103.092C110.895 103.097 112.614 102.643 114.133 101.776C115.652 100.909 116.917 99.6585 117.801 98.1497C118.686 96.6409 119.159 94.9265 119.174 93.1776C119.189 91.4287 118.745 89.7065 117.886 88.1828L77.3082 17.0397C76.4535 15.5193 75.2111 14.2526 73.7076 13.3685C72.2041 12.4844 70.4932 12.0144 68.749 12.0066Z" fill="white"/>
<path d="M62.4456 84.1871C62.4487 83.4788 62.5953 82.7785 62.8765 82.1285C63.1578 81.4785 63.5679 80.8923 64.0821 80.4052C64.5963 79.9182 65.2039 79.5404 65.8682 79.2948C66.5325 79.0491 67.2397 78.9407 67.9471 78.976C68.637 78.9773 69.3198 79.1145 69.9567 79.3797C70.5936 79.6449 71.172 80.0329 71.6589 80.5217C72.1458 81.0104 72.5317 81.5903 72.7945 82.2281C73.0573 82.866 73.1919 83.5494 73.1906 84.2393C73.1894 84.9292 73.0522 85.612 72.787 86.2489C72.5218 86.8858 72.1338 87.4642 71.645 87.9511C71.1563 88.438 70.5764 88.8239 69.9386 89.0867C69.3007 89.3495 68.6173 89.4841 67.9274 89.4828C67.2163 89.5086 66.5072 89.3907 65.8427 89.136C65.1782 88.8814 64.572 88.4953 64.0602 88.0009C63.5484 87.5065 63.1416 86.9138 62.8642 86.2585C62.5868 85.6032 62.4444 84.8987 62.4456 84.1871ZM62.9846 41.5591L73.0261 41.5828L71.2792 73.3142L64.5619 73.3021L62.9846 41.5591Z" fill="#AA5D81"/>
</svg>
