<svg width="30" height="30" viewBox="0 0 30 30" fill="none" xmlns="http://www.w3.org/2000/svg">
<path d="M30 15.0919C30 6.75567 23.2837 -0.00183105 15 -0.00183105C6.7125 4.39456e-05 -0.00375366 6.75567 -0.00375366 15.0938C-0.00375366 22.6257 5.4825 28.8694 12.6525 30.0019V19.455H8.84625V15.0938H12.6562V11.7657C12.6562 7.9838 14.8969 5.89504 18.3225 5.89504C19.965 5.89504 21.6806 6.18942 21.6806 6.18942V9.90192H19.7887C17.9269 9.90192 17.3456 11.0663 17.3456 12.2607V15.0919H21.5044L20.8406 19.4532H17.3437V30C24.5137 28.8675 30 22.6238 30 15.0919Z" fill="#1877F2"/>
</svg>
