<svg width="20" height="20" viewBox="0 0 20 20" fill="none" xmlns="http://www.w3.org/2000/svg">
<path d="M18.481 6.72085C18.5433 6.38679 18.5749 6.04772 18.5753 5.70789C18.5715 2.55172 16.0099 -0.00376289 12.8537 4.15943e-06C10.4511 0.00289223 8.30687 1.50825 7.48799 3.76702C6.02181 3.18337 4.36008 3.89878 3.7764 5.36496C3.72588 5.49187 3.68452 5.62221 3.65267 5.75502C1.31157 6.10514 -0.302401 8.28681 0.047726 10.6279C0.361731 12.7275 2.16548 14.2809 4.28842 14.28H10.0032V8.86104L7.65081 11.2134C7.36703 11.4875 6.91481 11.4796 6.64074 11.1959C6.37336 10.919 6.37336 10.4802 6.64074 10.2033L10.2125 6.63161C10.279 6.56493 10.3582 6.51224 10.4453 6.47662C10.6201 6.40437 10.8163 6.40437 10.9911 6.47662C11.0783 6.51228 11.1574 6.56497 11.224 6.63161L14.7957 10.2033C15.0795 10.4774 15.0874 10.9296 14.8133 11.2134C14.5392 11.4972 14.087 11.505 13.8032 11.231C13.7973 11.2252 13.7914 11.2194 13.7856 11.2134L11.4318 8.86104V14.2801H15.7179C18.085 14.2779 20.0022 12.3571 19.9999 9.98994C19.9988 8.72994 19.4432 7.53428 18.481 6.72085Z" fill="white"/>
<path d="M10.0032 14.2803V19.2807C10.0032 19.6752 10.323 19.9951 10.7175 19.9951C11.1121 19.9951 11.4319 19.6752 11.4319 19.2807V14.2803H10.0032Z" fill="white"/>
</svg>
