<svg width="20" height="20" viewBox="0 0 20 20" fill="none" xmlns="http://www.w3.org/2000/svg">
<path d="M10 0C4.48645 0 0 4.48566 0 10C0 15.5143 4.48645 20 10 20C15.5143 20 20 15.5143 20 10C20 4.48566 15.5136 0 10 0ZM10 18.4508C5.34004 18.4508 1.54918 14.66 1.54918 10C1.54918 5.34004 5.34004 1.54918 10 1.54918C14.66 1.54918 18.4508 5.34004 18.4508 10C18.4508 14.66 14.66 18.4508 10 18.4508Z" fill="white"/>
<path d="M13.8731 9.15625H6.12715C5.69957 9.15625 5.35254 9.50329 5.35254 9.93087C5.35254 10.3585 5.69957 10.7055 6.12715 10.7055H13.8731C14.3007 10.7055 14.6477 10.3585 14.6477 9.93087C14.6477 9.50329 14.3007 9.15625 13.8731 9.15625Z" fill="white"/>
</svg>
