<svg width="20" height="20" viewBox="0 0 20 20" fill="none" xmlns="http://www.w3.org/2000/svg">
<g clip-path="url(#clip0)">
<path d="M4.99997 6.8291C3.18435 6.8291 1.70728 8.30618 1.70728 10.1218C1.70728 11.9374 3.18435 13.4145 4.99997 13.4145C6.8156 13.4145 8.29267 11.9374 8.29267 10.1218C8.29267 8.30618 6.8156 6.8291 4.99997 6.8291ZM4.99997 11.9511C3.99118 11.9511 3.17071 11.1306 3.17071 10.1218C3.17071 9.11305 3.99122 8.29254 4.99997 8.29254C6.00872 8.29254 6.82923 9.11305 6.82923 10.1218C6.82923 11.1306 6.00876 11.9511 4.99997 11.9511Z" fill="white"/>
<path d="M15 0C13.1843 0 11.7073 1.47707 11.7073 3.2927C11.7073 5.10832 13.1843 6.58539 15 6.58539C16.8156 6.58539 18.2927 5.10832 18.2927 3.2927C18.2927 1.47707 16.8156 0 15 0ZM15 5.12195C13.9912 5.12195 13.1707 4.30148 13.1707 3.2927C13.1707 2.28391 13.9912 1.46344 15 1.46344C16.0087 1.46344 16.8292 2.28391 16.8292 3.2927C16.8292 4.30145 16.0088 5.12195 15 5.12195Z" fill="white"/>
<path d="M15 13.415C13.1843 13.415 11.7073 14.8921 11.7073 16.7078C11.7073 18.5234 13.1843 20.0004 15 20.0004C16.8156 20.0004 18.2927 18.5233 18.2927 16.7077C18.2927 14.8921 16.8156 13.415 15 13.415ZM15 18.537C13.9912 18.537 13.1707 17.7165 13.1707 16.7078C13.1707 15.699 13.9912 14.8785 15 14.8785C16.0087 14.8785 16.8292 15.699 16.8292 16.7078C16.8292 17.7165 16.0088 18.537 15 18.537Z" fill="white"/>
<path d="M12.7981 4.24048L6.65173 8.21582L7.44653 9.44467L13.5929 5.46933L12.7981 4.24048Z" fill="white"/>
<path d="M7.4467 10.875L6.65002 12.1025L12.6258 15.981L13.4225 14.7535L7.4467 10.875Z" fill="white"/>
</g>
<defs>
<clipPath id="clip0">
<rect width="20" height="20" fill="white"/>
</clipPath>
</defs>
</svg>
