<svg width="50" height="50" viewBox="0 0 50 50" fill="none" xmlns="http://www.w3.org/2000/svg">
<path d="M43.75 13.5417H39.5833V9.375C39.5833 5.9292 36.7791 3.125 33.3333 3.125H6.25C2.8042 3.125 0 5.9292 0 9.375V30.2083C0 33.6541 2.8042 36.4583 6.25 36.4583H10.4167V40.625C10.4167 44.0708 13.2209 46.875 16.6667 46.875H43.75C47.1958 46.875 50 44.0708 50 40.625V19.7917C50 16.3458 47.1958 13.5417 43.75 13.5417ZM4.1667 9.375C4.1667 8.225 5.10215 7.2917 6.25 7.2917H33.3333C34.4813 7.2917 35.4166 8.225 35.4166 9.375V22.8625L27.2687 16.9208C26.7104 16.5146 25.9895 16.4063 25.3457 16.6396L4.1667 24.1375V9.375ZM6.25 32.2917C5.10205 32.2917 4.1667 31.3584 4.1667 30.2084V28.5542L25.7021 20.9312L35.4167 28.0187V30.2083C35.4167 31.3583 34.4813 32.2916 33.3334 32.2916H6.25V32.2917ZM45.8333 40.625C45.8333 41.775 44.9 42.7083 43.75 42.7083H16.6667C15.5188 42.7083 14.5834 41.775 14.5834 40.625V36.4583H33.3334C36.7792 36.4583 39.5834 33.6541 39.5834 30.2083V17.7083H43.75C44.9 17.7083 45.8333 18.6416 45.8333 19.7916V40.625Z" fill="white"/>
<path d="M11.4582 17.584C13.1841 17.584 14.5832 16.1849 14.5832 14.459C14.5832 12.7331 13.1841 11.334 11.4582 11.334C9.73236 11.334 8.33325 12.7331 8.33325 14.459C8.33325 16.1849 9.73236 17.584 11.4582 17.584Z" fill="white"/>
</svg>
